<svg width="419" height="419" viewBox="0 0 419 419" fill="none" xmlns="http://www.w3.org/2000/svg">
<path d="M293.064 156.75L296.338 157.405L295.683 160.678L296.338 161.988L294.373 163.297L276.042 229.42L269.495 227.456L285.863 167.225L179.148 226.147L114.334 342.681L109.752 340.063L107.133 342.681L35.1172 270.666L39.7 266.083L106.478 332.861L166.709 224.183L46.2469 102.411L50.8297 97.8281V94.5547H54.7578L56.0672 93.2453L57.3766 94.5547L224.322 84.7344L224.977 91.2813L63.2687 100.447L177.184 214.363L290.445 151.513L293.064 156.75Z" fill="#161616" stroke="black" stroke-width="5.12"/>
<path d="M319.25 156.75C319.25 171.153 307.466 182.938 293.062 182.938C278.659 182.938 266.875 171.153 266.875 156.75C266.875 142.347 278.659 130.562 293.062 130.562C307.466 130.562 319.25 142.347 319.25 156.75ZM50.8281 143.656C25.2953 143.656 5 123.361 5 97.8281C5 72.2953 25.2953 52 50.8281 52C76.3609 52 96.6562 72.2953 96.6562 97.8281C96.6562 123.361 76.3609 143.656 50.8281 143.656ZM175.219 281.141C142.484 281.141 116.297 254.953 116.297 222.219C116.297 189.484 142.484 163.297 175.219 163.297C207.953 163.297 234.141 189.484 234.141 222.219C234.141 254.953 207.953 281.141 175.219 281.141ZM83.5625 340.062C83.5625 325.659 95.3469 313.875 109.75 313.875C124.153 313.875 135.938 325.659 135.938 340.062C135.938 354.466 124.153 366.25 109.75 366.25C95.3469 366.25 83.5625 354.466 83.5625 340.062ZM24.6406 268.047C24.6406 260.845 30.5328 254.953 37.7344 254.953C44.9359 254.953 50.8281 260.845 50.8281 268.047C50.8281 275.248 44.9359 281.141 37.7344 281.141C30.5328 281.141 24.6406 275.248 24.6406 268.047ZM207.953 88.0078C207.953 78.8422 215.155 71.6406 224.32 71.6406C233.486 71.6406 240.688 78.8422 240.688 88.0078C240.688 97.1734 233.486 104.375 224.32 104.375C215.155 104.375 207.953 97.1734 207.953 88.0078ZM253.781 228.766C253.781 217.636 262.292 209.125 273.422 209.125C284.552 209.125 293.062 217.636 293.062 228.766C293.062 239.895 284.552 248.406 273.422 248.406C262.292 248.406 253.781 239.895 253.781 228.766Z" fill="#F4F4F5" stroke="black" stroke-width="5.12"/>
</svg>
